# xmcd CD database file
#
# Track frame offsets:
#	150
#	20866
#	45095
#	60234
#	86149
#	105404
#	136100
#	151606
#	172568
#	198702
#
# Disc length: 2826 seconds
#
# Revision: 0
# Processed by: cddbd v1.5.2PL0 Copyright (c) Steve Scherf et al.
# Submitted via: Feurio! 1.68 - http://www.feurio.com
#
DISCID=6a0b080a
DTITLE=The Mark Knoll Band - High Time
DYEAR=2007
DGENRE=Blues Rock
TTITLE0=Gotta Give It Up
TTITLE1=It's Gotta Matter To Ya
TTITLE2=Lay It On The Line
TTITLE3=High Time
TTITLE4=They Don't Cry
TTITLE5=Fall Blues
TTITLE6=Sweet Little Thing
TTITLE7=The Bird Flew (This Bird Has Flu)
TTITLE8=I've Got A Lot To Learn
TTITLE9=That's A Ball
EXTD=
EXTT0=
EXTT1=
EXTT2=
EXTT3=
EXTT4=
EXTT5=
EXTT6=
EXTT7=
EXTT8=
EXTT9=
PLAYORDER=
